# This file uses centimeters as units for non-parametric coordinates.

mtllib Portal.mtl
g default
v 0.528995 1.526892 -0.832367
v -0.547975 1.526892 -0.711301
v -1.519524 1.526892 -0.359957
v -2.290550 1.526892 0.187275
v -2.785579 1.526892 0.876827
v -2.956154 1.526892 1.641202
v -2.785579 1.526892 2.405576
v -2.290550 1.526892 3.095128
v -1.519524 1.526892 3.642360
v -0.547975 1.526892 3.993704
v 0.528995 1.526892 4.114769
v 0.528995 1.948340 -0.832367
v -0.547975 1.948340 -0.711301
v -1.519524 1.948340 -0.359957
v -2.290550 1.948340 0.187275
v -2.785579 1.948340 0.876827
v -2.956154 1.948340 1.641202
v -2.785579 1.948340 2.405576
v -2.290550 1.948340 3.095128
v -1.519524 1.948340 3.642360
v -0.547975 1.948340 3.993704
v 0.528995 1.948340 4.114769
v 0.528995 1.526892 -0.832367
v 0.528995 1.948340 4.114769
v 0.528994 1.526892 4.114769
v 0.528994 1.948340 4.114769
v 9.307639 1.526892 -0.832366
v 9.307639 1.948340 4.114769
v 9.307638 1.948340 -0.832366
v 9.307638 1.526892 4.114770
vt 0.451716 0.007647
vt 0.408159 0.029841
vt 0.373591 0.064409
vt 0.351397 0.107966
vt 0.343750 0.156250
vt 0.351397 0.204534
vt 0.373591 0.248091
vt 0.408159 0.282659
vt 0.451716 0.304853
vt 0.500000 0.312500
vt 0.425000 0.312500
vt 0.437500 0.312500
vt 0.450000 0.312500
vt 0.462500 0.312500
vt 0.475000 0.312500
vt 0.487500 0.312500
vt 0.500000 0.312500
vt 0.512500 0.312500
vt 0.525000 0.312500
vt 0.537500 0.312500
vt 0.550000 0.312500
vt 0.425000 0.688440
vt 0.437500 0.688440
vt 0.450000 0.688440
vt 0.462500 0.688440
vt 0.475000 0.688440
vt 0.487500 0.688440
vt 0.500000 0.688440
vt 0.512500 0.688440
vt 0.525000 0.688440
vt 0.537500 0.688440
vt 0.550000 0.688440
vt 0.451716 0.695147
vt 0.408159 0.717341
vt 0.373591 0.751909
vt 0.351397 0.795466
vt 0.343750 0.843750
vt 0.351397 0.892034
vt 0.373591 0.935591
vt 0.408159 0.970159
vt 0.451716 0.992353
vt 0.500000 1.000000
vt 0.000000 0.000000
vt 1.000000 0.000000
vt 1.000000 1.000000
vt 0.000000 1.000000
vt 0.000000 0.000000
vt 1.000000 0.000000
vt 1.000000 1.000000
vt 0.000000 1.000000
vt 0.550000 0.688440
vt 0.425000 0.312500
vt 0.500000 1.000000
vt 0.500000 0.312500
vn -0.012283 0.000000 -0.999925
vn -0.224713 0.000000 -0.974425
vn -0.224713 0.000000 -0.974425
vn -0.012283 0.000000 -0.999925
vn -0.458314 0.000000 -0.888791
vn -0.458314 0.000000 -0.888791
vn -0.698789 0.000000 -0.715328
vn -0.698789 0.000000 -0.715328
vn -0.909249 0.000000 -0.416252
vn -0.909249 0.000000 -0.416252
vn -1.000000 0.000000 0.000000
vn -1.000000 0.000000 0.000000
vn -0.909249 0.000000 0.416252
vn -0.909249 0.000000 0.416252
vn -0.698789 0.000000 0.715328
vn -0.698789 0.000000 0.715328
vn -0.458314 0.000000 0.888791
vn -0.458314 0.000000 0.888791
vn -0.224712 0.000000 0.974425
vn -0.224712 0.000000 0.974425
vn -0.111709 0.000000 0.993741
vn -0.111709 0.000000 0.993741
vn 0.000000 -1.000000 -0.000000
vn 0.000000 -1.000000 -0.000000
vn 0.000000 -1.000000 0.000000
vn 0.000000 -1.000000 0.000000
vn 0.000000 -1.000000 0.000000
vn 0.000000 -1.000000 0.000000
vn 0.000000 -1.000000 0.000000
vn 0.000000 -1.000000 0.000000
vn 0.000000 -1.000000 0.000000
vn 0.000000 -1.000000 0.000000
vn 0.000000 -1.000000 0.000000
vn 0.000000 1.000000 -0.000000
vn 0.000000 1.000000 -0.000000
vn 0.000000 1.000000 -0.000000
vn 0.000000 1.000000 -0.000000
vn 0.000000 1.000000 -0.000000
vn 0.000000 1.000000 -0.000000
vn 0.000000 1.000000 -0.000000
vn 0.000000 1.000000 -0.000000
vn 0.000000 1.000000 -0.000000
vn 0.000000 1.000000 -0.000000
vn 0.000000 1.000000 -0.000000
vn 1.000000 0.000004 -0.000000
vn 1.000000 0.000004 -0.000000
vn 1.000000 0.000004 -0.000000
vn 0.000000 0.000000 0.000000
vn 0.000000 0.000000 0.000000
vn 0.000000 0.000000 0.000000
vn 0.000000 0.000000 0.000000
vn 0.000000 0.000000 1.000000
vn 0.000000 0.000000 0.000000
vn 0.000000 0.000000 1.000000
vn 1.000000 -0.000004 0.000000
vn 1.000000 -0.000004 0.000000
vn 1.000000 -0.000004 0.000000
vn 0.000000 0.000000 0.000000
vn 0.000000 0.000000 1.000000
vn 0.000000 0.000000 1.000000
vn -0.000000 -0.996391 0.084883
vn -0.000000 -0.996391 0.084883
vn -0.000000 -0.996391 0.084883
vn -0.000000 -0.996391 0.084883
vn 0.000000 0.000000 -1.000000
vn 0.000000 0.000000 -1.000000
vn 0.000000 1.000000 -0.000000
vn 0.000000 1.000000 -0.000000
vn -0.000000 0.000001 1.000000
vn -0.000000 0.000001 1.000000
vn -0.000000 0.000001 1.000000
vn -0.000000 0.000001 1.000000
vn 0.000000 -1.000000 -0.000000
vn 0.000000 -1.000000 -0.000000
vn 0.000000 0.996391 -0.084883
vn 0.000000 0.996391 -0.084883
vn 0.000000 0.996391 -0.084883
vn 0.000000 0.996391 -0.084883
s 1
g pCylinder1
usemtl initialShadingGroup
f 1/11/1 2/12/2 13/23/3 12/22/4
f 2/12/2 3/13/5 14/24/6 13/23/3
f 3/13/5 4/14/7 15/25/8 14/24/6
f 4/14/7 5/15/9 16/26/10 15/25/8
f 5/15/9 6/16/11 17/27/12 16/26/10
f 6/16/11 7/17/13 18/28/14 17/27/12
f 7/17/13 8/18/15 19/29/16 18/28/14
f 8/18/15 9/19/17 20/30/18 19/29/16
f 9/19/17 10/20/19 21/31/20 20/30/18
f 10/20/19 11/21/21 22/32/22 21/31/20
s 2
f 1/11/23 11/10/24 10/9/25 9/8/26 8/7/27 7/6/28 6/5/29 5/4/30 4/3/31 3/2/32 2/1/33
s 3
f 22/32/34 12/42/35 13/41/36 14/40/37 15/39/38 16/38/39 17/37/40 18/36/41 19/35/42 20/34/43 21/33/44
s off
f 28/51/45 27/52/46 29/53/47
f 1/43/48 22/44/49 24/45/50 23/46/51
f 11/47/52 26/49/53 25/50/54
f 28/51/55 30/54/56 27/52/57
f 11/47/58 22/48/59 26/49/60
f 22/32/61 1/11/62 27/52/63 28/51/64
s 1
f 1/11/1 12/42/4 29/53/65 27/52/66
s 3
f 12/42/35 22/32/34 28/51/67 29/53/68
s off
f 22/32/69 11/10/70 30/54/71 28/51/72
s 2
f 11/10/24 1/11/23 27/52/73 30/54/74
s off
f 1/11/75 22/32/76 28/51/77 27/52/78
